<svg width="76" height="58" viewBox="0 0 76 58" fill="none" xmlns="http://www.w3.org/2000/svg">
<path d="M70.7103 0.0306015C68.6732 0.207577 66.9081 0.73851 65.4574 1.59122C64.8408 1.96127 64.5567 2.16505 63.8857 2.73889C63.1241 3.38781 62.5861 3.96701 61.9272 4.8519C61.6189 5.25948 61.3469 5.62952 61.3106 5.67779C61.2623 5.74215 60.8512 5.77969 59.195 5.87086C58.0646 5.93521 56.3237 6.03175 55.3263 6.09074C54.3289 6.14973 52.6787 6.24627 51.6571 6.30526C50.6295 6.36425 48.9672 6.46078 47.9516 6.51978C46.9361 6.57877 45.2798 6.6753 44.2643 6.73429C43.2488 6.79329 41.5925 6.88982 40.577 6.94881C39.5615 7.0078 37.9112 7.10434 36.9078 7.16333C35.8983 7.22232 29.6782 7.58164 23.0773 7.96777C9.62763 8.75076 9.01106 8.78831 6.51456 8.93311C4.58022 9.05109 4.15709 9.11544 3.47402 9.4265C2.8635 9.69464 2.4041 9.99497 1.89029 10.4562C0.778046 11.4483 0.0889392 12.7408 0.0103568 13.9743C-0.025912 14.4623 0.004312 14.6071 0.584612 17.2457C0.923121 18.7634 1.33417 20.6243 1.50342 21.3752C1.84193 22.9036 2.78492 27.1618 3.78835 31.6988C4.15709 33.3506 4.51977 35.0078 4.6044 35.3832C4.8341 36.4343 5.28746 37.212 6.10351 37.9789C6.96187 38.7779 8.0318 39.2982 9.23472 39.5019C9.44628 39.5395 17.3166 39.5556 32.1868 39.5556H54.8125L54.7823 39.6736C54.7641 39.7433 54.5344 40.9553 54.2684 42.3658C54.0025 43.7816 53.7728 44.9507 53.7546 44.9614C53.7425 44.9775 53.5008 45.0204 53.2287 45.0633C50.5811 45.4656 48.3264 47.2353 47.5164 49.5414L47.3472 50.0294L44.5061 49.9919C42.9465 49.9758 37.4579 49.9436 32.3137 49.9275L22.9624 49.89L22.8053 49.4288C22.231 47.7877 20.8286 46.3451 19.0515 45.5675C18.0057 45.1116 17.0204 44.9132 15.8235 44.9078C14.6025 44.9078 13.6595 45.1009 12.5835 45.5621C9.0836 47.0691 7.52404 50.7749 9.05337 53.9605C9.96009 55.8482 11.7675 57.2212 14.0101 57.736C15.745 58.1329 17.8002 57.8969 19.3597 57.1193C20.3027 56.6527 21.3183 55.8321 21.8804 55.076C22.2733 54.5558 22.6844 53.7781 22.8657 53.2097C22.9504 52.9415 23.0289 52.7163 23.041 52.7055C23.0592 52.6948 27.6169 52.7109 33.1842 52.7431C38.7454 52.7753 44.1978 52.8021 45.304 52.8021H47.3109L47.4076 53.1131C48 55.017 49.3601 56.4811 51.3307 57.3391C54.8911 58.8783 59.1285 57.6448 61.0326 54.5129C61.3288 54.0248 61.5947 53.3652 61.7398 52.7484C61.8909 52.121 61.8909 50.8553 61.7398 50.2279C61.3409 48.5439 60.3132 47.1442 58.7416 46.1466C58.2641 45.841 57.4057 45.4441 57.0793 45.369C56.9946 45.3529 56.9282 45.3261 56.9282 45.3154C56.9282 45.2993 57.0611 44.586 57.2304 43.7226C57.3936 42.8645 57.9799 39.7701 58.53 36.8473C59.0801 33.9245 59.7994 30.1114 60.1319 28.3738C60.4644 26.6309 61.0688 23.4131 61.4859 21.2143C64.4297 5.66706 64.1698 6.94881 64.3753 6.65385C65.0524 5.67779 66.2795 4.48185 67.1257 3.9831C68.0808 3.41999 69.181 3.06067 70.4383 2.89978C71.5747 2.75498 73.642 2.80861 75.1472 3.03386C75.3466 3.06067 75.5159 3.07676 75.528 3.06603C75.5461 3.04994 76.0176 0.336288 75.9995 0.314838C75.9874 0.293385 75.1532 0.186127 74.4278 0.105682C73.5453 0.00914764 71.4115 -0.0337563 70.7103 0.0306015ZM60.2407 10.7941C60.017 12.0007 59.2675 15.9371 58.5844 19.5518C57.9074 23.1664 57.2123 26.8186 57.049 27.6766C56.8858 28.5293 56.4385 30.9105 56.0517 32.9591C55.6648 35.0078 55.3384 36.6918 55.3323 36.6971C55.3263 36.7025 45.1227 36.7239 32.6583 36.7454C11.2174 36.7829 9.97218 36.7776 9.62763 36.6918C9.42815 36.6381 9.13195 36.5309 8.97479 36.4558C8.60606 36.2788 8.11643 35.8122 7.92904 35.4583C7.82628 35.2652 7.59658 34.3213 7.14926 32.3156C5.72269 25.8264 4.68298 21.1338 3.90321 17.6586C3.08716 14.0225 3.08111 13.9743 3.48007 13.261C3.7944 12.7033 4.33239 12.1831 4.82806 11.9739C5.17866 11.8237 5.14843 11.8291 8.35822 11.6414C9.70017 11.5663 31.8483 10.2738 35.5779 10.0593C36.5814 10.0003 38.2316 9.9038 39.2471 9.84481C40.2627 9.78582 41.9189 9.68928 42.9345 9.63029C43.95 9.5713 45.6063 9.47476 46.6218 9.41577C47.6373 9.35678 49.2936 9.26025 50.3091 9.20125C51.3246 9.14226 52.9749 9.04573 53.9843 8.98674C54.9878 8.92774 56.6682 8.83121 57.714 8.77222C58.7597 8.71322 59.7027 8.65423 59.7994 8.64887C59.9022 8.63814 60.1319 8.62206 60.3193 8.62206L60.6578 8.61133L60.2407 10.7941ZM16.6335 48.0559C18.1206 48.3347 19.2993 49.4073 19.6076 50.7642C20.0126 52.5661 18.6827 54.3573 16.6335 54.7649C16.0472 54.8775 15.1768 54.8454 14.6146 54.6845C13.5023 54.3681 12.5775 53.569 12.1483 52.5447C12.0395 52.2765 11.9911 52.0459 11.967 51.6169C11.9307 50.9143 12.0455 50.3995 12.3659 49.8364C12.6561 49.3108 13.4479 48.6082 14.0222 48.3616C14.8564 47.9969 15.7691 47.895 16.6335 48.0559ZM55.6587 48.1953C56.3297 48.3884 56.7468 48.619 57.2606 49.0748C58.0283 49.7559 58.3789 50.496 58.3789 51.4721C58.3789 52.0995 58.2943 52.4159 57.9799 53.0005C57.7684 53.392 57.6173 53.5797 57.2727 53.8908C56.5171 54.5665 55.5923 54.9044 54.4861 54.899C53.4101 54.8936 52.588 54.5879 51.8203 53.9015C51.1131 53.274 50.7443 52.5822 50.6657 51.7295C50.5025 50.0187 51.9291 48.3937 53.8574 48.088C54.3349 48.0076 55.2054 48.0612 55.6587 48.1953Z" fill="white"/>
<path d="M49.1908 15.4223C47.4439 15.5349 45.9025 15.6314 39.5192 16.0122C37.0408 16.1624 34.6229 16.3072 34.1393 16.334C33.6557 16.3608 31.2378 16.5056 28.7594 16.6558C26.281 16.8059 23.4702 16.9722 22.5031 17.0312C21.5419 17.0902 19.5109 17.2081 17.9997 17.2993C14.4695 17.5031 14.264 17.5246 13.8832 17.7123C13.1155 18.0823 12.7588 18.8599 13.0067 19.6161C13.182 20.1631 13.8227 20.6619 14.4635 20.7531C14.5965 20.7745 15.5092 20.7423 16.4885 20.678C17.4677 20.619 20.2967 20.4527 22.7751 20.3026C25.2534 20.1524 27.6714 20.0076 28.1549 19.9808C28.6385 19.954 31.0564 19.8092 33.5348 19.659C36.0132 19.5089 38.4311 19.3641 38.9147 19.3372C39.3983 19.3104 41.4112 19.1871 43.3878 19.0691C51.8203 18.565 51.4758 18.5864 51.8143 18.4738C53.0232 18.0769 53.3799 16.7255 52.5034 15.8781C51.917 15.3097 51.6027 15.2668 49.1908 15.4223Z" fill="white"/>
<path d="M28.6807 26.6899C18.2051 26.722 14.4271 26.7488 14.2639 26.7917C13.6836 26.9526 13.1396 27.4514 12.9824 27.9716C12.7648 28.6741 13.194 29.4732 13.9798 29.8379L14.282 29.9827L30.4821 29.9613C39.3921 29.9505 47.8246 29.9237 49.221 29.9076C51.6993 29.8754 51.7658 29.8701 52.0378 29.7521C52.8297 29.4089 53.2407 28.642 53.0292 27.9126C52.8599 27.3227 52.3945 26.8776 51.7779 26.7113C51.4213 26.6201 52.4972 26.6201 28.6807 26.6899Z" fill="white"/>
</svg>
